<?xml version="1.0" encoding="utf-8"?>
<!-- Generator: Adobe Illustrator 26.2.1, SVG Export Plug-In . SVG Version: 6.00 Build 0)  -->
<svg version="1.1" id="Calque_1" xmlns="http://www.w3.org/2000/svg" xmlns:xlink="http://www.w3.org/1999/xlink" x="0px" y="0px"
	 viewBox="0 0 522 268" style="enable-background:new 0 0 522 268;" xml:space="preserve">
<style type="text/css">
	.st0{fill:#013384;}
</style>
<g>
	<path class="st0" d="M379.17,53.58c-0.9,0.1-1.55,0.23-2.19,0.23c-9.8,0.01-19.6-0.01-29.4,0.03c-1.41,0.01-2.2-0.4-2.87-1.75
		c-5.95-11.87-15.49-18.58-28.85-19.39c-14.9-0.9-26.27,5.35-33.3,18.32c-6.24,11.51-5.81,23.49,1.23,34.58
		c7.06,11.12,17.52,16.62,30.86,16.29c8.98-0.23,16.6-3.63,23.04-9.79c0.65-0.62,1.24-1.3,2.29-2.41c-10.51,0-20.47,0-30.65,0
		c0-8.31,0-16.29,0-24.57c1.23,0,2.21,0,3.18,0c21.51,0,43.02,0.05,64.53-0.06c2.6-0.01,3.14,0.78,3.15,3.23
		c0.05,27.21-13.51,46.3-36.98,57.83c-24.81,12.18-49.42,9.66-71.47-7.33c-19.8-15.26-28.41-35.77-25.18-60.85
		c2.31-17.9,11.41-31.95,25.54-42.58c22.57-16.98,47.21-18.82,72.24-6.6c17.51,8.54,29.34,22.78,34.35,42.05
		C378.92,51.66,379,52.55,379.17,53.58z"/>
	<path class="st0" d="M459.91,133.17c-28.68-0.07-46.51-9.33-60.26-26.54c-21.42-26.81-17.26-65.8,8.99-88.45
		c12.89-11.12,27.68-16.92,44.61-16.91c19.95,0.01,36.84,7.34,50.43,22.1c16.74,18.19,20.64,39.51,14.46,62.74
		c-4.23,15.91-14.65,27.7-28.3,36.61C478.84,129.9,466.65,133.25,459.91,133.17z M453.13,101.94c19.28,0.27,34.78-14.79,35.12-34.14
		c0.35-19.75-14.59-34.99-34.63-35.33c-18.93-0.32-34.77,15.25-34.98,34.39C418.43,86.18,433.65,101.67,453.13,101.94z"/>
	<path class="st0" d="M32.73,130.73c-10.84,0-21.28,0-31.98,0c-0.06-0.95-0.15-1.83-0.15-2.71C0.58,87.52,0.6,47.03,0.53,6.53
		c0-2.31,0.67-2.95,2.94-2.92c8.8,0.12,17.61,0.13,26.41-0.01c2.38-0.04,2.89,0.77,2.88,2.98c-0.09,14.52,0.01,29.04-0.1,43.57
		c-0.02,2.42,0.71,3.08,3.09,3.07c15.45-0.1,30.89-0.1,46.34,0c2.35,0.01,2.93-0.77,2.91-2.99c-0.08-14.44-0.04-28.88-0.04-43.32
		c0-3.24,0.01-3.25,3.3-3.25c8.8,0,17.61,0.04,26.41-0.04c1.9-0.02,2.62,0.5,2.62,2.51c-0.05,40.74-0.05,81.49,0,122.23
		c0,1.97-0.66,2.52-2.6,2.5c-9.05-0.09-18.11-0.11-27.16,0.01c-2.19,0.03-2.61-0.8-2.61-2.75c0.06-13.86-0.03-27.72,0.08-41.57
		c0.02-2.49-0.63-3.22-3.19-3.2c-15.36,0.13-30.73,0.11-46.09,0.01c-2.39-0.02-3.09,0.64-3.07,3.05
		c0.11,13.69,0.05,27.38,0.05,41.08C32.73,128.47,32.73,129.46,32.73,130.73z"/>
	<path class="st0" d="M239.78,42.99c0,11.86,0.37,23.74-0.09,35.58c-0.61,15.74-6.92,29.09-18.79,39.56
		c-7.35,6.49-16.22,9.99-25.81,11.53c-11.95,1.92-23.87,1.72-35.48-2.03c-18.35-5.93-29.65-18.69-34.36-37.14
		c-1.4-5.48-1.91-11.3-1.97-16.98c-0.22-22.32-0.06-44.64-0.14-66.96c-0.01-2.25,0.56-2.99,2.9-2.96c8.8,0.13,17.6,0.13,26.4,0
		c2.37-0.04,3.1,0.6,3.09,3.04c-0.09,21.07-0.09,42.15-0.02,63.22c0.01,3.47,0.18,6.99,0.78,10.4
		c2.12,12.12,10.33,19.35,22.65,19.74c4.01,0.13,8.22-0.13,12.05-1.22c10.27-2.91,14.98-10.62,16.31-20.72
		c0.36-2.7,0.48-5.46,0.49-8.19c0.04-20.99,0.02-41.98,0.02-62.97c0-3.24,0.01-3.24,3.27-3.25c8.72,0,17.44,0.07,26.16-0.05
		c2.18-0.03,2.84,0.57,2.82,2.79c-0.1,12.2-0.05,24.39-0.05,36.59C239.95,42.99,239.86,42.99,239.78,42.99z"/>
	<path class="st0" d="M273.83,213.01c2.07,1.83,4.09,3.3,5.74,5.12c13.3,14.66,5.8,39.81-13.56,45.02
		c-4.43,1.19-9.16,1.65-13.76,1.7c-16.02,0.2-32.04,0.05-48.06,0.13c-2.13,0.01-2.84-0.51-2.84-2.76
		c0.07-32.59,0.05-65.19,0.05-97.78c0-0.73,0.08-1.46,0.14-2.4c0.9-0.05,1.7-0.14,2.5-0.14c16.02-0.01,32.04-0.03,48.06,0.01
		c7.56,0.02,14.84,1.14,21.52,5.08c15.5,9.15,17.14,35.88,1.29,45.12C274.57,212.3,274.29,212.61,273.83,213.01z M240.56,203.32
		c0-0.04,0-0.08,0-0.11c3.73,0,7.47,0.16,11.19-0.04c5.02-0.27,8-3.73,7.83-8.74c-0.17-5.26-2.9-7.98-8.62-8.1
		c-7.05-0.15-14.1-0.02-21.15-0.07c-1.53-0.01-2.27,0.43-2.24,2.12c0.08,4.31,0.07,8.62,0.01,12.93c-0.02,1.49,0.52,2.07,2.03,2.04
		C233.26,203.28,236.91,203.32,240.56,203.32z M240.91,240.55
		c0-0.01,0-0.02,0-0.03c3.74,0,7.47,0.1,11.21-0.03
		c3.94-0.13,6.25-2.08,7.14-5.72c1.58-6.5-1.89-11.02-8.9-11.2c-6.89-0.18-13.78-0.02-20.67-0.09c-1.69-0.02-2.13,0.7-2.1,2.24
		c0.06,4.23,0.1,8.46-0.01,12.69c-0.05,1.85,0.76,2.22,2.38,2.18C233.6,240.5,237.26,240.55,240.91,240.55z"/>
	<path class="st0" d="M0.74,161.88c1.02,0,1.75,0,2.49,0c14.86,0,29.72-0.06,44.59,0.02c9.25,0.05,18.15,1.6,26.23,6.54
		c10.24,6.26,17.16,15.03,20.42,26.57c3.7,13.12,3.69,26.27-0.72,39.2c-5.86,17.15-18.31,26.73-35.86,30.02
		c-2.75,0.52-5.61,0.67-8.42,0.68c-15.36,0.06-30.72-0.01-46.08,0.07c-2.11,0.01-2.86-0.47-2.86-2.74
		c0.07-32.6,0.05-65.21,0.06-97.81C0.59,163.7,0.67,162.97,0.74,161.88z M26.71,213.39c0,7.97,0.01,15.93-0.01,23.9
		c0,1.36,0.04,2.43,1.91,2.4c6.97-0.11,13.98,0.28,20.92-0.27c9.44-0.75,16.1-5.72,19.3-14.84c1.85-5.28,2.09-10.72,1.42-16.22
		c-1.55-12.75-9.73-20.36-22.58-20.79c-6.14-0.2-12.29-0.01-18.43-0.13c-1.97-0.04-2.59,0.58-2.56,2.55
		C26.76,197.79,26.71,205.59,26.71,213.39z"/>
	<path class="st0" d="M400.24,213.34c0.71,29.53-25.3,53.36-54.07,53.71c-28.78,0.35-55.12-23.92-55.42-53.14
		c-0.29-27.92,24.06-53.21,52.96-54.09C374.36,158.89,400.65,183.53,400.24,213.34z M345.69,241.64
		c15.92-0.06,28.13-12.24,28.12-28.05c0-16.21-12.23-28.4-28.36-28.27c-15.74,0.12-28.19,12.59-28.12,28.17
		C317.41,229.39,329.8,241.7,345.69,241.64z"/>
	<path class="st0" d="M493.91,199.54c0-1.73-0.04-3.13,0.01-4.52c0.18-5.34-2.55-8.89-7.23-10.82c-5.31-2.19-10.85-2.19-16.34-0.49
		c-1,0.31-1.98,0.9-2.8,1.56c-3.33,2.67-3.29,6.76,0.38,8.86c3.51,2,7.33,3.47,11.07,5.04c7.87,3.29,16.04,5.98,23.6,9.88
		c7.44,3.84,13.75,9.33,16.57,17.78c3.72,11.18,1.51,24.99-10.72,32.82c-6.32,4.05-13.21,6.2-20.58,6.85
		c-12.06,1.07-23.9,0.37-34.94-5.36c-10.83-5.61-16.75-14.24-16.72-26.68c0.01-5.54-0.11-5.54,5.38-5.54c5.98,0,11.96,0.01,17.94,0
		c1.22,0,2.32-0.06,2.31,1.73c-0.02,2.86-0.53,5.85,1.82,8.23c2.8,2.84,6.25,4.58,10.12,4.85c4.18,0.29,8.41,0.02,12.6-0.21
		c1.18-0.06,2.4-0.69,3.45-1.32c3.46-2.09,3.96-5.91,0.87-8.49c-2-1.66-4.42-2.95-6.85-3.94c-8.67-3.53-17.52-6.65-26.12-10.35
		c-6.54-2.81-12.36-6.74-16.27-13.02c-8.09-12.97-4.76-29.6,7.73-38.42c10.03-7.08,21.34-8.67,33.21-7.85
		c8.24,0.57,16.02,2.69,22.96,7.36c9.39,6.32,14.17,15.06,14.11,26.45c-0.03,5.59,0.07,5.6-5.42,5.6
		C507.47,199.54,500.91,199.54,493.91,199.54z"/>
	<path class="st0" d="M102.01,161.96c8.74,0,17.12,0,25.81,0c0.07,1.07,0.2,2.1,0.2,3.13c0.01,17.01-0.06,34.02,0.07,51.03
		c0.03,3.53,0.41,7.16,1.3,10.56c2.03,7.73,8.21,12.67,16.2,13.26c2.8,0.21,5.69,0.27,8.44-0.19c10.37-1.75,16.3-9.17,16.41-20.82
		c0.17-17.84,0.06-35.68,0.07-53.52c0-1.06,0-2.12,0-3.36c8.77,0,17.26,0,25.95,0c0.05,0.89,0.15,1.7,0.15,2.5
		c0.01,17.84,0.02,35.68,0,53.52c-0.01,12.36-3.26,23.57-11.69,32.99c-5.02,5.62-11.14,9.54-18.29,11.53
		c-12.44,3.46-24.98,3.66-37.22-0.82c-14.26-5.22-22.65-15.82-26.09-30.33c-1.04-4.39-1.37-9.04-1.41-13.57
		c-0.16-17.76-0.07-35.52-0.06-53.27C101.85,163.8,101.94,162.99,102.01,161.96z"/>
	<path class="st0" d="M405.33,162.02c8.65,0,17.09,0,25.77,0c0,34.22,0,68.42,0,102.73c-0.77,0.07-1.42,0.18-2.07,0.18
		c-7.14,0.01-14.28-0.04-21.43,0.04c-1.77,0.02-2.5-0.42-2.49-2.35c0.05-32.94,0.04-65.89,0.04-98.83
		C405.15,163.3,405.25,162.81,405.33,162.02z"/>
</g>
</svg>

